<svg width="84" height="706" viewBox="0 0 84 706" fill="none" xmlns="http://www.w3.org/2000/svg">
<g id="VORSTAND">
<path id="Path" d="M2 41.4167L82 70V57.1667L19.6 35L82 12.8333V0L2 28.5833L2 41.4167Z" fill="#00618F"/>
<path id="Combined Shape" fill-rule="evenodd" clip-rule="evenodd" d="M1 104.108C1 80.2 17.0956 65 41 65C64.9044 65 81 80.2 81 104.108L81 139.892C81 163.8 64.9044 179 41 179C17.0956 179 1 163.8 1 139.892L1 104.108ZM63.5714 102.982C63.5714 87.3198 51.8254 80.675 40.7143 80.675C29.6032 80.675 17.8571 87.3198 17.8571 102.982L17.8571 138.738C17.8571 154.242 29.6032 161.045 40.7143 161.045C51.8254 161.045 63.5714 154.242 63.5714 138.738L63.5714 102.982Z" fill="#00618F"/>
<path id="Combined Shape_2" fill-rule="evenodd" clip-rule="evenodd" d="M36.4 194.276H2V182L82 182L82 230.694C82 246.756 72.9714 255.361 59.1429 255.361C47.2571 255.361 39.1429 249.166 36.9714 237.348L2 258V244.232L36.4 223.925L36.4 194.276ZM48.5248 194.571L48.5248 231.335C48.5248 238.926 52.383 243.714 59.305 243.714C66.227 243.714 70.0851 238.926 70.0851 231.335L70.0851 194.571H48.5248Z" fill="#00618F"/>
<path id="Path_2" d="M0.5 295.167C0.5 311.956 9.82455 321.5 22.7178 321.5C35.7261 321.5 43.439 315.061 46.5472 302.182L49.8856 288.383C51.1519 282.978 54.3752 279.299 60.7067 279.299C66.8079 279.299 71.2975 283.208 71.2975 292.868C71.2975 300.687 67.3835 305.401 60.8218 307.126L60.8218 320.235C74.2906 318.28 83.5 309.081 83.5 292.868C83.5 278.609 76.2476 266.88 60.7067 266.88C49.1949 266.88 40.7913 272.859 38.1436 283.438L34.69 297.697C32.733 305.861 29.0492 309.081 23.0631 309.081C16.7316 309.081 12.8176 303.792 12.8176 295.512C12.8176 285.968 17.6526 279.759 26.7469 278.034V265.5C11.6664 266.765 0.61512 276.654 0.61512 295.167H0.5Z" fill="#00618F"/>
<path id="Path_3" d="M2.5 360.702H60.7403L60.7403 400.5H82.5L82.5 325.5H60.7403V348.312H2.5V360.702Z" fill="#00618F"/>
<path id="Combined Shape_3" fill-rule="evenodd" clip-rule="evenodd" d="M21.3143 408.237L2 396.633V375L82 423.183V444.817L2 493L2 471.367L21.3143 459.763L21.3143 408.237ZM32.0709 414.712L32.0709 453.288L63.844 434L32.0709 414.712Z" fill="#00618F"/>
<path id="Path_4" d="M2 505.805H59.3714L2 532.195L2 542H82L82 532.195H24.6286L82 505.805V496H2V505.805Z" fill="#00618F"/>
<path id="Combined Shape_4" fill-rule="evenodd" clip-rule="evenodd" d="M29.7286 705.5C12.4714 705.5 1.5 693.79 1.5 676.399L1.5 548.5H81.5L81.5 676.399C81.5 693.79 70.5286 705.5 53.2714 705.5H29.7286ZM13.9823 560.483L13.9823 677.646C13.9823 685.828 18.9956 694.478 30.2757 694.478H53.2917C64.5717 694.478 69.5851 685.828 69.5851 677.646L69.5851 560.483H13.9823Z" fill="#00618F"/>
</g>
</svg>
