<svg width="511" height="182" viewBox="0 0 511 182" fill="none" xmlns="http://www.w3.org/2000/svg">
<g id="ANGEBOT">
<path id="AGEBOT Copy" fill-rule="evenodd" clip-rule="evenodd" d="M219.033 143.045C219.033 164.49 204.54 178.125 183.016 178.125C161.493 178.125 147 164.49 147 143.045V35.0797C147 13.6342 161.493 0 183.016 0C203.392 0 217.311 12.072 218.889 31.8132H203.536C201.957 20.1673 192.2 15.0545 183.016 15.0545C172.972 15.0545 162.354 21.1615 162.354 35.0797V143.045C162.354 157.105 172.972 163.07 183.016 163.07C193.061 163.07 203.679 157.105 203.679 143.045V136.654H183.016V122.025H219.033V143.045ZM305.529 63.6128V74.7683H239.603V1.09953H305.529V12.2551H256.683V32.0404H294.356V43.196H256.683V63.6128H305.529ZM279.4 179.224C299.418 179.224 309.925 168.46 309.925 150.985C309.925 142.178 306.233 134.209 297.715 129.176C304.104 124.703 307.511 117.713 307.511 109.325C307.511 92.4096 296.863 81.3656 276.986 81.3656H238.653V179.224H279.4ZM253.571 121.172H276.67C285.882 121.172 291.692 116.514 291.692 107.903C291.692 99.2928 285.882 94.6345 276.67 94.6345H253.571V121.172ZM278.607 162.638H253.571V136.1H278.607C287.925 136.1 293.35 140.614 293.35 149.369C293.35 158.124 287.925 162.638 278.607 162.638ZM412.069 79.6892C442.487 79.6892 461.825 100.274 461.825 130.845C461.825 161.416 442.487 182 412.069 182H366.544C336.126 182 316.787 161.416 316.787 130.845C316.787 100.274 336.126 79.6892 366.544 79.6892H412.069ZM445.278 130.845C445.278 146.059 436.012 162.143 414.171 162.143H364.311C342.69 162.143 333.204 146.059 333.204 130.845C333.204 115.63 342.69 99.5462 364.311 99.5462H414.171C436.012 99.5462 445.278 115.63 445.278 130.845ZM492.854 91.1891V146.238H482.998V91.1891H464.852V81.3656H511V91.1891H492.854Z" fill="#00618F"/>
<g id="Combined Shape">
<path fill-rule="evenodd" clip-rule="evenodd" d="M26.2167 105L40.2783 79.65H102.722L116.783 105H143L84.6083 0H58.3917L0 105H26.2167ZM92.4 63.4375H48.4L70.4 20.7812L92.4 63.4375Z" fill="#D8D8D8"/>
<path fill-rule="evenodd" clip-rule="evenodd" d="M26.2167 105L40.2783 79.65H102.722L116.783 105H143L84.6083 0H58.3917L0 105H26.2167ZM92.4 63.4375H48.4L70.4 20.7812L92.4 63.4375Z" fill="#00618F"/>
</g>
</g>
</svg>
