<svg width="474" height="229" viewBox="0 0 474 229" fill="none" xmlns="http://www.w3.org/2000/svg">
<g id="HOI Z&#195;&#132;ME">
<path id="HOIZ&#195;&#132;M&#195;&#132;" fill-rule="evenodd" clip-rule="evenodd" d="M12.9435 48.0562L12.9435 84.0984H0L0 0L12.9435 0L12.9435 35.3213L47.7821 35.3213L47.7821 0L60.7256 0L60.7256 84.0984H47.7821L47.7821 48.0562L12.9435 48.0562ZM110.505 85.9672C84.6422 85.9672 68.1995 68.671 68.1995 42.9836C68.1995 17.2962 84.6422 0 110.505 0L149.214 0C175.077 0 191.519 17.2962 191.519 42.9836C191.519 68.671 175.077 85.9672 149.214 85.9672L110.505 85.9672ZM81.746 42.5164C81.746 29.3436 89.7018 15.418 108.455 15.418L151.264 15.418C169.828 15.418 177.973 29.3436 177.973 42.5164C177.973 55.6892 169.828 69.6148 151.264 69.6148L108.455 69.6148C89.7018 69.6148 81.746 55.6892 81.746 42.5164ZM246.639 71.3635V84.0984L197.125 84.0984V71.3635L215.468 71.3635L215.468 12.7349L197.125 12.7349V0L246.639 0V12.7349L228.296 12.7349L228.296 71.3635H246.639ZM184.045 184.082L184.045 171.347L138.89 171.347L183.446 112.718V99.9836L123.919 99.9836V112.718L167.876 112.718L123.32 171.347V184.082L184.045 184.082ZM209.27 99.9836V137.361H199.927V99.9836L209.27 99.9836ZM238.231 137.361V99.9836H228.889V137.361H238.231ZM204.044 207.696L197.062 228H184.045L213.038 143.902L226.055 143.902L255.048 228H242.031L235.049 207.696L204.044 207.696ZM207.401 195.295L219.079 162.59L230.757 195.295L207.401 195.295ZM292.749 140.677V228L261.587 228L261.587 100.918H295.445L336.794 170.813L378.142 100.918H412L412 228L380.839 228V140.677L349.378 193.869H324.209L292.749 140.677Z" fill="#00618F"/>
<path id="E" d="M473.609 228.469V209.087H431.377V173.612H463.948V154.229H431.377V119.852L473.609 119.852V100.469L416.609 100.469L416.609 228.469H473.609Z" fill="#00618F"/>
</g>
</svg>
