<?xml version="1.0" encoding="UTF-8"?>
<svg width="50px" height="50px" viewBox="0 0 50 50" version="1.1" xmlns="http://www.w3.org/2000/svg" xmlns:xlink="http://www.w3.org/1999/xlink">
    <title>Group 8</title>
    <defs>
        <polygon id="path-1" points="0 0 50 0 50 50 0 50"></polygon>
    </defs>
    <g id="Page-1" stroke="none" stroke-width="1" fill="none" fill-rule="evenodd">
        <g id="Home" transform="translate(-130.000000, -2534.000000)">
            <g id="Group-8" transform="translate(130.000000, 2534.000000)">
                <g id="Group-3">
                    <mask id="mask-2" fill="white">
                        <use xlink:href="#path-1"></use>
                    </mask>
                    <g id="Clip-2"></g>
                    <path d="M45.3954212,35.939747 C45.3954212,41.2304863 41.1062545,45.519653 35.8155152,45.519653 L14.1845202,45.519653 C8.8937809,45.519653 4.60461424,41.2304863 4.60461424,35.939747 L4.60461424,14.308752 C4.60461424,9.01765869 8.8937809,4.72884607 14.1845202,4.72884607 L35.8155152,4.72884607 C41.1062545,4.72884607 45.3954212,9.01765869 45.3954212,14.308752 L45.3954212,35.939747 Z M35.5680429,-3.54037693e-05 L14.4319925,-3.54037693e-05 C6.46118791,-3.54037693e-05 0,6.46150654 0,14.4319571 L0,35.5683615 C0,43.5388121 6.46118791,50 14.4319925,50 L35.5680429,50 C43.5384935,50 50.0000354,43.5388121 50.0000354,35.5683615 L50.0000354,14.4319571 C50.0000354,6.46150654 43.5384935,-3.54037693e-05 35.5680429,-3.54037693e-05 L35.5680429,-3.54037693e-05 Z" id="Fill-1" fill="#00618F" mask="url(#mask-2)"></path>
                </g>
                <path d="M25,33.4270822 C20.3458411,33.4270822 16.5729178,29.6541589 16.5729178,25 C16.5729178,20.3458411 20.3458411,16.5729178 25,16.5729178 C29.6541589,16.5729178 33.4270822,20.3458411 33.4270822,25 C33.4270822,29.6541589 29.6541589,33.4270822 25,33.4270822 M25,12 C17.8202707,12 12,17.8202707 12,25 C12,32.1797293 17.8202707,38 25,38 C32.1797293,38 38,32.1797293 38,25 C38,17.8202707 32.1797293,12 25,12" id="Fill-4" fill="#00618F"></path>
                <path d="M38,9 C36.3430948,9 35,10.3431734 35,12.0001757 C35,13.6568266 36.3430948,15 38,15 C39.6569052,15 41,13.6568266 41,12.0001757 C41,10.3431734 39.6569052,9 38,9" id="Fill-6" fill="#00618F"></path>
            </g>
        </g>
    </g>
</svg>