<?xml version="1.0" encoding="utf-8"?>
<!-- Generator: Adobe Illustrator 26.4.1, SVG Export Plug-In . SVG Version: 6.00 Build 0)  -->
<svg version="1.1" id="Ebene_1" xmlns="http://www.w3.org/2000/svg" xmlns:xlink="http://www.w3.org/1999/xlink" x="0px" y="0px"
	 viewBox="0 0 29 215" style="enable-background:new 0 0 29 215;" xml:space="preserve">
<style type="text/css">
	.st0{fill-rule:evenodd;clip-rule:evenodd;fill:#00618F;}
</style>
<g id="KONTAKT">
	<path id="KONTAKT_2" class="st0" d="M5.9,28v-8.1l5.4-5L22.2,28h6.3L14.8,11.5L27.1,0h-6.6L5.9,13.7V0H0.5v28H5.9z M14.5,30
		c-8.4,0-14,5.3-14,13.7v12.6c0,8.4,5.6,13.7,14,13.7c8.4,0,14-5.3,14-13.7V43.7C28.5,35.3,22.9,30,14.5,30z M21.5,43
		c0-5.7-4.1-8-8-8c-3.9,0-8,2.4-8,8V56c0,5.6,4.1,8,8,8c3.9,0,8-2.5,8-8V43z M0.5,79.3h20.1L0.5,90.7V95h23.8v12H0.5v6h23.8v11h4.2
		V95h-4.2h4.2v-3v-1.3H8.4l20.1-11.5V75h-28V79.3z M0,123.7l6.8,3.8v17L0,148.4v7.1l28-15.9v-7.1L0,116.5V123.7z M22.5,136.5
		l-11-6.5v13L22.5,136.5z M0.5,177h8.1l5-5L0.5,161.9V156L17,168.7l11.5-11.4v6.2L14.8,177h13.7v5h-28V177z M20,203.1H0v-6.2h20
		v-11.4h8v29h-8V203.1z"/>
</g>
</svg>
