<svg width="659" height="169" viewBox="0 0 659 169" fill="none" xmlns="http://www.w3.org/2000/svg">
<g id="MITGLIED WERD&#195;&#132;">
<path id="Path" d="M36.255 77V25.4643L72.8586 56.8571H102.141L138.745 25.4643V77H175V2H135.608L87.5 43.25L39.3924 2H0V77H36.255Z" fill="#00618F"/>
<path id="Path_2" d="M225 77V65.6429H208.7V13.3571H225V2H181V13.3571H197.3V65.6429H181V77H225Z" fill="#00618F"/>
<path id="Path_3" d="M263.766 77V23H285V2H231V23H252.234V77H263.766Z" fill="#00618F"/>
<path id="Path_4" d="M318 77C334.135 77 345 66.7333 345 50.5847V34.7569H318V45.7722H333.49V50.5847C333.49 61.1722 325.53 65.6639 318 65.6639C310.47 65.6639 302.51 61.1722 302.51 50.5847V26.4153C302.51 15.9347 310.47 11.3361 318 11.3361C324.884 11.3361 332.199 15.1861 333.382 23.9556H344.892C343.709 9.09028 333.275 0 318 0C301.865 0 291 10.2667 291 26.4153V50.5847C291 66.7333 301.865 77 318 77Z" fill="#00618F"/>
<path id="Path_5" d="M448 77V65.6429H380.576V2H357V77H448Z" fill="#00618F"/>
<path id="Path_6" d="M498 77V65.6429H481.7V13.3571H498V2H454V13.3571H470.3V65.6429H454V77H498Z" fill="#00618F"/>
<path id="Path_7" d="M529 77V65.6429H510.477V44.8571H524.763V33.5H510.477V13.3571H529V2H504V77H529Z" fill="#00618F"/>
<path id="Combined Shape" fill-rule="evenodd" clip-rule="evenodd" d="M659 50.5357C659 66.7143 648.135 77 632 77H535V2H632C648.135 2 659 12.2857 659 28.4643V50.5357ZM546 65H631.5C639.035 65 647 60.3115 647 49.7623V28.2377C647 17.6885 639.035 13 631.5 13H546V65Z" fill="#00618F"/>
<path id="Path_8" d="M181.532 169L196.5 122.929L211.468 169H231.81L251 94H230.85L218.377 150.25L204.752 104.714H188.248L174.623 150.25L162.15 94H142L161.19 169H181.532Z" fill="#00618F"/>
<path id="Path_9" d="M282 169V157.643H263.477V136.857H277.763V125.5H263.477V105.357H282V94H257V169H282Z" fill="#00618F"/>
<path id="Combined Shape_2" fill-rule="evenodd" clip-rule="evenodd" d="M299.472 136.75V169H288V94H337.483C352.493 94 360.534 102.464 360.534 115.429C360.534 126.571 354.745 134.179 343.702 136.214L363 169H350.135L331.158 136.75H299.472ZM300 125H337.781C344.661 125 349 121.421 349 115C349 108.579 344.661 105 337.781 105H300V125Z" fill="#00618F"/>
<path id="Combined Shape_3" fill-rule="evenodd" clip-rule="evenodd" d="M473 142.536C473 158.714 462.135 169 446 169H369V94H446C462.135 94 473 104.286 473 120.464V142.536ZM381 157H446.5C454.035 157 462 152.311 462 141.762V120.238C462 109.689 454.035 105 446.5 105H381V157Z" fill="#00618F"/>
<path id="&#195;&#132;" fill-rule="evenodd" clip-rule="evenodd" d="M496 94V120H488V94H496ZM520 94V120H512V94H516H520ZM484.367 169L490.463 158.136H517.537L523.633 169H535L509.683 124H498.317L473 169H484.367ZM504 133L494 151H514L504 133Z" fill="#00618F"/>
</g>
</svg>
