<svg width="312" height="45" viewBox="0 0 312 45" fill="none" xmlns="http://www.w3.org/2000/svg">
<g id="&#195;&#150;FFNIGSZITE">
<path id="&#195;&#150;FFNIGSZITE_2" fill-rule="evenodd" clip-rule="evenodd" d="M18.2483 12.5906V0H15.0337V12.5906H18.2483ZM28.1393 12.5906V0H24.9247V12.5906H28.1393ZM14.7855 44.5609C5.74659 44.5609 0 38.5509 0 29.625C0 20.6991 5.74659 14.6891 14.7855 14.6891H28.3139C37.3528 14.6891 43.0994 20.6991 43.0994 29.625C43.0994 38.5509 37.3528 44.5609 28.3139 44.5609H14.7855ZM6.41148 29.625C6.41148 25.4761 8.91465 21.0902 14.815 21.0902H28.2844C34.1251 21.0902 36.6879 25.4761 36.6879 29.625C36.6879 33.7739 34.1251 38.1598 28.2844 38.1598H14.815C8.91465 38.1598 6.41148 33.7739 6.41148 29.625ZM50.1162 31.8116V44.1906H45.6958V15.3062H62.7577H79.8197V19.6802H67.1781V27.4377H76.9278V31.8116H67.1781V44.1906H62.7577L62.7577 19.6802H50.1162V27.4377H59.8659V31.8116H50.1162ZM89.9186 23.9702V44.6844H82.5397V15.8H89.9186L109.779 36.5142V15.8H117.158V44.6844H109.779L89.9186 23.9702ZM136.94 44.1906V39.8167H130.619V19.6802H136.94V15.3062H119.878V19.6802H126.199V39.8167H119.878V44.1906H136.94ZM160.431 34.4367C160.431 40.7015 156.252 44.6844 150.046 44.6844C143.839 44.6844 139.66 40.7015 139.66 34.4367V25.0602C139.66 18.7954 143.839 14.8125 150.046 14.8125C155.921 14.8125 159.935 18.339 160.39 24.106H155.963C155.507 20.7039 152.694 19.2103 150.046 19.2103C147.149 19.2103 144.087 20.9943 144.087 25.0602V34.4367C144.087 38.544 147.149 40.2866 150.046 40.2866C152.942 40.2866 156.004 38.544 156.004 34.4367V32.5697H150.046V28.2963H160.431V34.4367ZM169.891 43.8125C173.789 43.8125 176.004 40.5545 176.004 36.0497C176.004 31.5046 174.509 28.8097 171.52 27.7237L168.316 26.5573C167.062 26.1149 166.207 24.9886 166.207 22.7764C166.207 20.6447 167.115 19.076 169.357 19.076C171.173 19.076 172.267 20.4436 172.667 22.7362H175.711C175.257 18.0303 173.121 14.8125 169.357 14.8125C166.047 14.8125 163.324 17.3465 163.324 22.7764C163.324 26.7986 164.713 29.7348 167.168 30.6599L170.478 31.8666C172.374 32.5504 173.121 33.8375 173.121 35.929C173.121 38.1412 171.893 39.5088 169.971 39.5088C167.756 39.5088 166.314 37.8194 165.914 34.6419H163.004C163.298 39.911 165.593 43.7723 169.891 43.7723V43.8125ZM213.948 39.6261V44H178.696V39.6261L204.561 19.4895H179.043V15.1156H213.6V19.4895L187.735 39.6261H213.948ZM233.264 44V39.6261H227.092V19.4895H233.264V15.1156H216.603V19.4895H222.775V39.6261H216.603V44H233.264ZM253.264 39.6261V44H236.603V39.6261H242.775V19.4895H236.603V15.1156H253.264V19.4895H247.092V39.6261H253.264ZM268.951 44V23.1224H276.926V15.1156H256.644V23.1224H264.619V44H268.951ZM311.453 39.6261V44H280.306V15.1156H311.453V19.4895H288.376V27.2471H306.174V31.621H288.376V39.6261H311.453Z" fill="#00618F"/>
</g>
</svg>
