<svg width="403" height="68" viewBox="0 0 403 68" fill="none" xmlns="http://www.w3.org/2000/svg">
<path fill-rule="evenodd" clip-rule="evenodd" d="M345 67H358V54H345V67Z" fill="#00618F"/>
<path fill-rule="evenodd" clip-rule="evenodd" d="M367 67H380V54H367V67Z" fill="#00618F"/>
<path fill-rule="evenodd" clip-rule="evenodd" d="M390 67H403V54H390V67Z" fill="#00618F"/>
<path fill-rule="evenodd" clip-rule="evenodd" d="M64.0411 53.4677C77.3097 53.4677 83.1313 43.459 83.1313 33.9895C83.1313 24.52 77.3097 14.5097 64.0411 14.5097H33.4413C20.039 14.5097 14.3511 24.52 14.3511 33.9895C14.3511 43.459 20.039 53.4677 33.4413 53.4677H64.0411ZM64.0411 0.0366211C84.486 0.0366211 97.484 13.697 97.484 33.9895C97.484 54.2804 84.486 67.9423 64.0411 67.9423H33.4413C12.998 67.9423 0 54.2804 0 33.9895C0 13.697 12.998 0.0366211 33.4413 0.0366211H64.0411Z" fill="#00618F"/>
<mask id="mask0_0_98" style="mask-type:alpha" maskUnits="userSpaceOnUse" x="105" y="0" width="49" height="68">
<path fill-rule="evenodd" clip-rule="evenodd" d="M105.996 0.0944824H153.386V68H105.996V0.0944824Z" fill="white"/>
</mask>
<g mask="url(#mask0_0_98)">
<path fill-rule="evenodd" clip-rule="evenodd" d="M143.284 23.3894C143.284 14.1463 136.3 10.0922 129.69 10.0922C123.082 10.0922 116.097 14.1463 116.097 23.3894V44.7052C116.097 54.0411 123.082 58.0025 129.69 58.0025C136.3 58.0025 143.284 54.0411 143.284 44.7052V23.3894ZM105.996 23.3894C105.996 9.14742 115.529 0.0944824 129.69 0.0944824C143.851 0.0944824 153.386 9.14742 153.386 23.3894V44.7052C153.386 58.9457 143.851 68.0002 129.69 68.0002C115.529 68.0002 105.996 58.9457 105.996 44.7052V23.3894Z" fill="#00618F"/>
</g>
<mask id="mask1_0_98" style="mask-type:alpha" maskUnits="userSpaceOnUse" x="163" y="0" width="48" height="68">
<path fill-rule="evenodd" clip-rule="evenodd" d="M163.394 0.0944824H210.783V68H163.394V0.0944824Z" fill="white"/>
</mask>
<g mask="url(#mask1_0_98)">
<path fill-rule="evenodd" clip-rule="evenodd" d="M200.682 23.3894C200.682 14.1463 193.698 10.0922 187.088 10.0922C180.479 10.0922 173.495 14.1463 173.495 23.3894V44.7052C173.495 54.0411 180.479 58.0025 187.088 58.0025C193.698 58.0025 200.682 54.0411 200.682 44.7052V23.3894ZM163.394 23.3894C163.394 9.14742 172.927 0.0944824 187.088 0.0944824C201.248 0.0944824 210.783 9.14742 210.783 23.3894V44.7052C210.783 58.9457 201.248 68.0002 187.088 68.0002C172.927 68.0002 163.394 58.9457 163.394 44.7052V23.3894Z" fill="#00618F"/>
</g>
<path fill-rule="evenodd" clip-rule="evenodd" d="M228.438 10.8451V34.236H274.915C283.506 34.236 286.905 28.8598 286.905 22.5405C286.905 16.2213 283.506 10.8451 274.915 10.8451H228.438ZM228.438 67.057H218.337V1.03766H274.915C290.302 1.03766 297.193 10.9395 297.193 22.6349C297.193 34.3287 290.302 44.2321 274.915 44.2321H228.438V67.057Z" fill="#00618F"/>
<mask id="mask2_0_98" style="mask-type:alpha" maskUnits="userSpaceOnUse" x="301" y="0" width="27" height="68">
<path fill-rule="evenodd" clip-rule="evenodd" d="M301.568 0H328V67.9998H301.568V0Z" fill="white"/>
</mask>
<g mask="url(#mask2_0_98)">
<path fill-rule="evenodd" clip-rule="evenodd" d="M315.57 67.9055C306.833 67.9055 302.165 58.851 301.568 46.4954H307.483C308.298 53.9465 311.229 57.9078 315.734 57.9078C319.641 57.9078 322.138 54.701 322.138 49.5136C322.138 44.6106 320.618 41.5924 316.764 39.989L310.035 37.1595C305.042 34.9902 302.22 28.105 302.22 18.6732C302.22 5.94187 307.755 -0.000152588 314.486 -0.000152588C322.138 -0.000152588 326.479 7.54527 327.402 18.5789H321.216C320.401 13.2028 318.176 9.99754 314.486 9.99754C309.926 9.99754 308.081 13.6744 308.081 18.6732C308.081 23.8607 309.818 26.5016 312.368 27.5391L318.881 30.2743C324.96 32.8209 328 39.1402 328 49.7965C328 60.3601 323.494 67.9998 315.57 67.9998V67.9055Z" fill="#00618F"/>
</g>
</svg>
