<svg width="611" height="108" viewBox="0 0 611 108" fill="none" xmlns="http://www.w3.org/2000/svg">
<g id="VEREIN">
<path id="Path" d="M55.025 108L93 0H75.95L46.5 84.24L17.05 0H0L37.975 108H55.025Z" fill="#00618F"/>
<path id="Path_2" d="M239 108V91.6457H134.53V61.7143H215.102V45.36H134.53V16.3543H239V0H98V108H239Z" fill="#00618F"/>
<path id="Combined Shape" fill-rule="evenodd" clip-rule="evenodd" d="M262.223 61.56V108H246V0H332.915C354.142 0 365.513 12.1886 365.513 30.8571C365.513 46.9029 357.326 57.8571 341.709 60.7886L369 108H350.806L323.97 61.56H262.223ZM262.279 45.7627H333.008C342.878 45.7627 349.103 40.5217 349.103 31.1186C349.103 21.7156 342.878 16.4746 333.008 16.4746H262.279V45.7627Z" fill="#00618F"/>
<path id="Path_3" d="M419 108V91.6457H389.363V61.7143H412.22V45.36H389.363V16.3543H419V0H379V108H419Z" fill="#00618F"/>
<path id="Path_4" d="M488 108V91.6457H464.291V16.3543H488V0H424V16.3543H447.709V91.6457H424V108H488Z" fill="#00618F"/>
<path id="Path_5" d="M518.151 108V30.5486L585.849 108H611V0H585.849V77.4514L518.151 0H493V108H518.151Z" fill="#00618F"/>
</g>
</svg>
