<?xml version="1.0" encoding="utf-8"?>
<!-- Generator: Adobe Illustrator 26.2.1, SVG Export Plug-In . SVG Version: 6.00 Build 0)  -->
<svg version="1.1" id="Ebene_1" xmlns="http://www.w3.org/2000/svg" xmlns:xlink="http://www.w3.org/1999/xlink" x="0px" y="0px"
	 viewBox="0 0 705.5 83" style="enable-background:new 0 0 705.5 83;" xml:space="preserve">
<style type="text/css">
	.st0{fill:#00618F;}
	.st1{fill-rule:evenodd;clip-rule:evenodd;fill:#00618F;}
</style>
<g id="VORSTAND">
	<path id="Path" class="st0" d="M41.4,81.5L70,1.5H57.2L35,63.9L12.8,1.5H0l28.6,80H41.4z"/>
	<path id="Combined_Shape" class="st1" d="M104.1,82.5c-23.9,0-39.1-16.1-39.1-40s15.2-40,39.1-40h35.8c23.9,0,39.1,16.1,39.1,40
		s-15.2,40-39.1,40H104.1z M103,19.9c-15.7,0-22.3,11.7-22.3,22.9s6.6,22.9,22.3,22.9h35.8c15.5,0,22.3-11.7,22.3-22.9
		s-6.8-22.9-22.3-22.9H103z"/>
	<path id="Combined_Shape_x5F_2" class="st1" d="M194.3,47.1v34.4H182v-80h48.7c16.1,0,24.7,9,24.7,22.9c0,11.9-6.2,20-18,22.2
		l20.7,35h-13.8l-20.3-34.4H194.3z M194.6,35h36.8c7.6,0,12.4-3.9,12.4-10.8s-4.8-10.8-12.4-10.8h-36.8V35z"/>
	<path id="Path_2" class="st0" d="M295.2,83c16.8,0,26.3-9.3,26.3-22.2c0-13-6.4-20.7-19.3-23.8l-13.8-3.3
		c-5.4-1.3-9.1-4.5-9.1-10.8c0-6.1,3.9-10.6,13.6-10.6c7.8,0,12.5,3.9,14.3,10.5h13.1C318.3,9.2,309.1,0,292.9,0
		c-14.3,0-26,7.3-26,22.8c0,11.5,6,19.9,16.6,22.6l14.3,3.5c8.2,2,11.4,5.6,11.4,11.6c0,6.3-5.3,10.2-13.6,10.2
		c-9.5,0-15.8-4.8-17.5-13.9h-12.5c1.3,15.1,11.2,26.1,29.7,26.1V83z"/>
	<path id="Path_3" class="st0" d="M360.7,81V22.8h39.8V1h-75v21.8h22.8V81H360.7z"/>
	<path id="Combined_Shape_x5F_3" class="st1" d="M408.2,62.2l-11.6,19.3H375l48.2-80h21.6l48.2,80h-21.6l-11.6-19.3H408.2z
		 M414.7,51.4h38.6L434,19.7L414.7,51.4z"/>
	<path id="Path_4" class="st0" d="M505.8,81.5V24.1l26.4,57.4h9.8v-80h-9.8v57.4L505.8,1.5H496v80H505.8z"/>
	<path id="Combined_Shape_x5F_4" class="st1" d="M705.5,53.8c0,17.3-11.7,28.2-29.1,28.2H548.5V2h127.9c17.4,0,29.1,11,29.1,28.2
		V53.8z M560.5,69.5h117.2c8.2,0,16.8-5,16.8-16.3v-23c0-11.3-8.7-16.3-16.8-16.3H560.5V69.5z"/>
</g>
</svg>
