<svg width="167" height="78" viewBox="0 0 167 78" fill="none" xmlns="http://www.w3.org/2000/svg">
<g id="WO ISCHES">
<g id="Group 13">
<path id="Path" d="M81.2648 5.11715H68.7137L60.584 25.5858L52.3117 0H33.0571L47.3197 35.8201H66.4316L74.9892 14.328L83.5468 35.8201H102.659L116.921 0H97.6668L89.3945 25.5858L81.2648 5.11715Z" fill="#00618F"/>
<path id="Shape" fill-rule="evenodd" clip-rule="evenodd" d="M166.059 17.91C166.059 29.2798 159.053 35.7768 148.441 35.7768L134.699 35.7768C124.087 35.7768 117.081 29.2798 117.081 17.91C117.081 6.54032 124.087 0.043335 134.699 0.043335L148.441 0.043335C159.053 0.043335 166.059 6.54032 166.059 17.91ZM125.853 18.2747C125.853 23.1887 128.896 27.0257 134.374 27.0257L148.035 27.0257C153.513 27.0257 156.556 23.1887 156.556 18.2747C156.556 13.3606 153.513 9.52363 148.035 9.52363L134.374 9.52363C128.896 9.52363 125.853 13.3606 125.853 18.2747Z" fill="#00618F"/>
<path id="Path_2" d="M21.7463 77.4883V70.6825H14.2934V48.474H21.7463V41.6682H0V48.474H7.45297V70.6825H0V77.4883H21.7463Z" fill="#00618F"/>
<path id="Path_3" d="M33.7418 78C38.7108 78 41.3414 74.1109 41.3414 67.6122C41.3414 61.5228 39.4578 58.1966 35.9503 56.7126L32.2479 55.1263C30.9813 54.5634 29.9745 53.6935 29.9745 51.5955C29.9745 49.0881 31.2736 47.9623 32.9299 47.9623C34.3914 47.9623 35.7229 49.1392 36.1451 51.442H40.9842C40.4646 45.3014 37.704 41.1565 33.1248 41.1565C29.1301 41.1565 25.5901 44.4315 25.5901 51.5955C25.5901 56.9173 27.2789 60.704 30.7864 62.188L34.6187 63.8255C36.2101 64.4907 36.9571 65.6165 36.9571 67.6122C36.9571 70.0684 35.658 71.1942 33.7094 71.1942C31.5009 71.1942 30.0395 69.2497 29.7797 66.1794H25.2979C25.5577 73.2922 28.7079 78 33.7094 78H33.7418Z" fill="#00618F"/>
<path id="Path_4" d="M64.4733 65.5141C64.1159 69.1985 61.3594 71.1942 57.8881 71.1942C54.1616 71.1942 51.2519 68.8915 51.2519 64.7466V54.4099C51.2519 50.265 54.1616 47.9623 57.8881 47.9623C61.3594 47.9623 64.1159 49.958 64.4733 53.6423H71.3647C71.1095 46.1201 66.2089 41.1565 57.8881 41.1565C49.3121 41.1565 44.4115 46.4272 44.4115 54.4099V64.7466C44.4115 72.7293 49.3121 78 57.8881 78C66.2089 78 71.1095 73.0363 71.3647 65.5141H64.4733Z" fill="#00618F"/>
<path id="Path_5" d="M99.108 55.9962H83.3075V41.6682H75.1642V77.4883H83.3075V62.802H99.108V77.4883H107.251V41.6682H99.108V55.9962Z" fill="#00618F"/>
<path id="Path_6" d="M115.212 48.474H124.71V41.6682H110.854V77.4883H124.71V70.6825H115.212V62.802H122.433V55.9962H115.212V48.474Z" fill="#00618F"/>
<path id="Path_7" d="M145.685 78C156.527 78 162.266 74.1109 162.266 67.6122C162.266 61.5228 158.156 58.1966 150.504 56.7126L142.426 55.1263C139.662 54.5634 137.466 53.6935 137.466 51.5955C137.466 49.0881 140.3 47.9623 143.914 47.9623C147.103 47.9623 150.008 49.1392 150.929 51.442H161.487C160.353 45.3014 154.33 41.1565 144.339 41.1565C135.623 41.1565 127.9 44.4315 127.9 51.5955C127.9 56.9173 131.584 60.704 139.237 62.188L147.599 63.8255C151.071 64.4907 152.7 65.6165 152.7 67.6122C152.7 70.0684 149.866 71.1942 145.614 71.1942C140.796 71.1942 137.607 69.2497 137.041 66.1794H127.262C127.829 73.2922 134.702 78 145.614 78H145.685Z" fill="#00618F"/>
</g>
</g>
</svg>
